<?xml version="1.0" standalone="no"?>
<!DOCTYPE svg PUBLIC "-//W3C//DTD SVG 20010904//EN"
 "http://www.w3.org/TR/2001/REC-SVG-20010904/DTD/svg10.dtd">
<svg version="1.0" xmlns="http://www.w3.org/2000/svg"
 width="700.000000pt" height="700.000000pt" viewBox="0 0 700.000000 700.000000"
 preserveAspectRatio="xMidYMid meet">
<metadata>
Created by potrace 1.14, written by Peter Selinger 2001-2017
</metadata>
<g transform="translate(0.000000,700.000000) scale(0.100000,-0.100000)"
fill="#000000" stroke="none">
<path d="M388 6559 c-168 -18 -318 -144 -369 -311 -18 -61 -19 -128 -18 -2433
0 -1376 4 -2395 9 -2430 11 -68 13 -80 30 -150 7 -27 17 -54 21 -60 5 -5 9
-15 9 -22 0 -25 62 -147 115 -228 145 -219 381 -387 640 -454 55 -14 89 -19
170 -27 98 -10 5523 -11 5615 -1 298 30 475 353 344 624 -57 116 -193 220
-314 238 -24 4 -1288 7 -2808 7 -1735 0 -2778 4 -2802 10 -48 13 -114 72 -136
123 -17 38 -18 184 -19 2385 -1 1909 -3 2355 -14 2400 -50 209 -255 351 -473
329z"/>
<path d="M6044 6115 c-85 -15 -162 -56 -225 -118 -50 -49 -105 -140 -114 -189
-2 -11 -7 -29 -11 -40 -3 -11 -6 -733 -6 -1604 0 -1208 3 -1597 12 -1637 26
-112 100 -215 198 -274 82 -49 152 -66 254 -61 74 3 96 9 160 40 118 59 204
163 238 288 18 63 18 3191 1 3264 -54 229 -276 374 -507 331z"/>
<path d="M3425 5245 c-77 -17 -177 -67 -225 -113 -39 -38 -90 -115 -111 -169
l-23 -58 -2 -1170 c-1 -1264 -4 -1207 51 -1315 56 -111 175 -199 306 -225 51
-11 149 -6 199 10 152 47 262 162 303 316 21 80 21 2304 0 2393 -46 197 -233
342 -432 335 -31 -1 -60 -3 -66 -4z"/>
<path d="M4722 4364 c-80 -16 -153 -56 -217 -119 -53 -51 -108 -149 -121 -215
-10 -51 -11 -1426 -1 -1485 34 -198 213 -350 417 -354 203 -4 364 111 429 306
21 62 21 75 19 800 l-3 738 -26 63 c-86 202 -285 309 -497 266z"/>
<path d="M2074 3921 c-154 -43 -270 -161 -308 -313 -14 -58 -16 -131 -16 -562
1 -502 2 -517 40 -601 68 -151 226 -254 391 -257 202 -3 382 137 433 338 9 36
12 181 11 544 -1 456 -2 500 -20 555 -33 106 -90 182 -180 240 -103 67 -235
88 -351 56z"/>
</g>
</svg>
